<?xml version="1.0" encoding="UTF-8"?>
<svg id="Layer_2" data-name="Layer 2" xmlns="http://www.w3.org/2000/svg" viewBox="0 0 262.39 273.66">
  <defs>
    <style>
      .cls-1 {
        fill: #594032;
      }

      .cls-2 {
        fill: #f2f2f2;
      }

      .cls-3 {
        fill: #a6785d;
      }

      .cls-4 {
        fill: #d9a384;
      }
    </style>
  </defs>
  <g id="Layer_1-2" data-name="Layer 1">
    <path class="cls-3" d="M59.87,273.13s18.02-.8,18.42-11.01-.4-66.29-.4-66.29l-10.1-5.96-41.32,7.12,12.66,68.39s2.83,10.76,20.73,7.75Z"/>
    <path class="cls-1" d="M77.89,195.83v7.92s-25.14,2.51-50.04.65l-1.37-7.41,23.4-10.57,28.01,9.41Z"/>
    <path class="cls-3" d="M75.78,70.52s-16,36.92-32.4,53.53c-16.41,16.61-37.94,33.43-35.28,43.89.5,1.95,1.01,4.28,1.69,6.79-.32.06-.64.15-.95.3l-7.01,3.61c-1.65.85-2.3,2.87-1.45,4.52l5.34,10.39c.85,1.65,2.87,2.3,4.52,1.45l7.01-3.61c.27-.14.51-.32.72-.52,4.78,5.03,12.12,8.54,23.85,8.03,28.01-1.23,68.57-6.53,94.65,6.3,0,0-73.83-42.16-60.7-134.69Z"/>
    <path class="cls-4" d="M120.27,8.29s-75.4,43.25-35.51,136.19,125.32,70.28,125.32,70.28L120.27,8.29Z"/>
    <ellipse class="cls-1" cx="172.79" cy="108.42" rx="83.49" ry="113.17" transform="translate(-29.71 83.84) rotate(-25.19)"/>
    <ellipse class="cls-3" cx="172.79" cy="108.42" rx="27.53" ry="37.32" transform="translate(-29.71 83.84) rotate(-25.19)"/>
    <path class="cls-3" d="M193.91,153.34c-10.28,6.64-24.26,5.34-34.81-.34-21.76-11.54-34.38-38.35-29.38-62.46,2.35-11.75,10.28-23.36,21.95-27.03-4.85,3.1-8.8,7.33-11.56,12.29-13.09,24.65-.8,57.73,21.74,72.45,9.32,6.13,21.25,8.69,32.07,5.1h0Z"/>
    <path class="cls-4" d="M31.28,146.78s8.49-7.3,14.29-13.61,17.9-23.43,22.67-32.32c0,0-.89,11.89,5.38,25.82,0,0-19.67,11.53-26.11,20.8s-19.69,3.66-16.22-.68Z"/>
    <g>
      <path class="cls-2" d="M135.6,29.53c.02-1.54.31-3.06.88-4.58.57-1.52,1.4-2.88,2.48-4.08,1.08-1.2,2.39-2.16,3.94-2.89,1.54-.73,3.29-1.08,5.23-1.06,2.33.03,4.31.57,5.96,1.62,1.64,1.05,2.88,2.41,3.7,4.08l-3.19,2.09c-.35-.77-.78-1.42-1.27-1.96-.5-.53-1.04-.96-1.64-1.28-.6-.32-1.22-.55-1.86-.69-.65-.14-1.27-.21-1.87-.22-1.34-.02-2.52.24-3.54.77-1.01.53-1.87,1.23-2.56,2.11s-1.22,1.87-1.58,2.97-.55,2.2-.56,3.31c-.01,1.25.18,2.44.57,3.57.4,1.13.95,2.14,1.68,3.01.72.87,1.58,1.57,2.58,2.1,1,.53,2.1.8,3.3.81.62,0,1.27-.06,1.93-.21.66-.15,1.3-.39,1.92-.73.62-.34,1.18-.77,1.71-1.29s.96-1.15,1.3-1.89l3.33,1.95c-.42.96-1.01,1.79-1.76,2.52-.75.72-1.6,1.33-2.54,1.82-.94.49-1.94.87-2.98,1.12s-2.07.37-3.08.36c-1.8-.02-3.44-.42-4.92-1.21-1.48-.79-2.75-1.8-3.82-3.05-1.07-1.25-1.89-2.66-2.47-4.24-.58-1.58-.86-3.18-.84-4.82Z"/>
      <path class="cls-2" d="M165.83,18.34l3.85.92-4.82,20.28c-.16.68-.11,1.25.15,1.72.26.47.7.78,1.33.93.26.06.57.09.93.07.36-.01.71-.04,1.04-.09l-.16,3.15c-.62.12-1.34.17-2.14.14-.81-.03-1.51-.12-2.12-.26-1.33-.32-2.28-.92-2.84-1.82-.56-.9-.69-2.01-.37-3.34l5.16-21.68Z"/>
      <path class="cls-2" d="M169.44,46.54l6.63-17.62,3.71,1.39-6.63,17.62-3.71-1.39ZM177.16,26.02l1.53-4.08,3.71,1.39-1.53,4.08-3.71-1.39Z"/>
      <path class="cls-2" d="M180.47,40.34c.68-1.13,1.53-2.08,2.53-2.85s2.09-1.31,3.28-1.63c1.19-.32,2.43-.38,3.72-.2s2.58.66,3.85,1.43c1.66,1.01,2.87,2.24,3.63,3.7.76,1.46,1.07,2.97.93,4.54l-3.93-.95c.02-.91-.18-1.76-.61-2.54-.43-.78-1.04-1.41-1.84-1.9-.68-.41-1.39-.66-2.14-.75-.75-.09-1.48-.02-2.21.2-.72.22-1.41.58-2.05,1.09-.64.51-1.21,1.16-1.7,1.96-.47.78-.79,1.58-.93,2.4-.15.82-.15,1.61,0,2.37.14.76.42,1.46.84,2.09.42.63.95,1.15,1.61,1.55.41.25.85.44,1.33.58.48.14.95.2,1.41.21.46,0,.9-.06,1.32-.17.42-.11.78-.28,1.09-.52l2.73,3c-1.27.89-2.76,1.33-4.48,1.34-1.72,0-3.43-.5-5.13-1.54-1.25-.76-2.25-1.68-3-2.75-.75-1.07-1.26-2.22-1.52-3.43-.26-1.21-.29-2.44-.08-3.69.21-1.25.66-2.44,1.34-3.56Z"/>
      <path class="cls-2" d="M201.6,68.4l1.88-10.39-4.3-.13-4.05,4.05-2.8-2.8,18.58-18.59,2.8,2.8-11.78,11.79,12.6-.38,3.06,3.05-10.74.41-2.26,13.16-2.98-2.98Z"/>
      <path class="cls-2" d="M220.19,98.6l16.42-8.29-15.86-.51-1.01-1.99,9-13.09-16.42,8.29-1.82-3.6,22.82-11.51,1.95,3.86-10.14,14.59,17.76.52,1.95,3.86-22.82,11.51-1.83-3.63Z"/>
      <path class="cls-2" d="M225.3,114.38c-.44-1.4-.59-2.75-.46-4.04.13-1.3.5-2.49,1.09-3.57.59-1.08,1.38-2.02,2.36-2.82.98-.8,2.1-1.4,3.36-1.79,1.26-.4,2.53-.55,3.8-.46s2.47.41,3.58.95c1.11.54,2.1,1.31,2.95,2.3.85.99,1.5,2.19,1.95,3.61.44,1.4.58,2.74.44,4.03-.15,1.29-.51,2.47-1.1,3.53-.58,1.06-1.37,1.98-2.34,2.75s-2.07,1.35-3.29,1.73c-.28.09-.54.16-.78.21-.25.05-.46.09-.62.12l-4.52-14.39c-.78.32-1.44.74-1.99,1.25s-.97,1.08-1.29,1.73c-.32.64-.5,1.31-.55,2.02-.05.71.03,1.41.24,2.09.16.5.38.98.66,1.43.28.45.61.85.98,1.18.37.34.78.61,1.22.82.44.21.9.35,1.37.4l.09,3.52c-1.54-.19-2.97-.87-4.28-2.03-1.31-1.16-2.26-2.69-2.86-4.59ZM237.7,116.49c.73-.31,1.37-.71,1.92-1.22.54-.51.96-1.08,1.26-1.7.29-.62.47-1.29.52-2.01.05-.72-.04-1.44-.26-2.15-.22-.71-.56-1.34-1.01-1.89-.45-.55-.97-1-1.57-1.34s-1.26-.56-2-.66c-.74-.1-1.49-.06-2.27.11l3.41,10.85Z"/>
    </g>
  </g>
</svg>