<?xml version="1.0" encoding="UTF-8"?>
<svg id="Layer_2" data-name="Layer 2" xmlns="http://www.w3.org/2000/svg" viewBox="0 0 262.39 273.66">
  <defs>
    <style>
      .cls-1 {
        fill: #594032;
      }

      .cls-2 {
        fill: #a6785d;
      }

      .cls-3 {
        fill: #d9a384;
      }
    </style>
  </defs>
  <g id="Layer_1-2" data-name="Layer 1">
    <path class="cls-2" d="M59.87,273.13s18.02-.8,18.42-11.01-.4-66.29-.4-66.29l-10.1-5.96-41.32,7.12,12.66,68.39s2.83,10.76,20.73,7.75Z"/>
    <path class="cls-1" d="M77.89,195.83v7.92s-25.14,2.51-50.04.65l-1.37-7.41,23.4-10.57,28.01,9.41Z"/>
    <path class="cls-2" d="M75.78,70.52s-16,36.92-32.4,53.53c-16.41,16.61-37.94,33.43-35.28,43.89.5,1.95,1.01,4.28,1.69,6.79-.32.06-.64.15-.95.3l-7.01,3.61c-1.65.85-2.3,2.87-1.45,4.52l5.34,10.39c.85,1.65,2.87,2.3,4.52,1.45l7.01-3.61c.27-.14.51-.32.72-.52,4.78,5.03,12.12,8.54,23.85,8.03,28.01-1.23,68.57-6.53,94.65,6.3,0,0-73.83-42.16-60.7-134.69Z"/>
    <path class="cls-3" d="M120.27,8.29s-75.4,43.25-35.51,136.19,125.32,70.28,125.32,70.28L120.27,8.29Z"/>
    <ellipse class="cls-1" cx="172.79" cy="108.42" rx="83.49" ry="113.17" transform="translate(-29.71 83.84) rotate(-25.19)"/>
    <ellipse class="cls-2" cx="172.79" cy="108.42" rx="27.53" ry="37.32" transform="translate(-29.71 83.84) rotate(-25.19)"/>
    <path class="cls-2" d="M193.91,153.34c-10.28,6.64-24.26,5.34-34.81-.34-21.76-11.54-34.38-38.35-29.38-62.46,2.35-11.75,10.28-23.36,21.95-27.03-4.85,3.1-8.8,7.33-11.56,12.29-13.09,24.65-.8,57.73,21.74,72.45,9.32,6.13,21.25,8.69,32.07,5.1h0Z"/>
    <path class="cls-3" d="M31.28,146.78s8.49-7.3,14.29-13.61,17.9-23.43,22.67-32.32c0,0-.89,11.89,5.38,25.82,0,0-19.67,11.53-26.11,20.8s-19.69,3.66-16.22-.68Z"/>
  </g>
</svg>