<?xml version="1.0" encoding="UTF-8"?>
<svg id="Layer_2" data-name="Layer 2" xmlns="http://www.w3.org/2000/svg" viewBox="0 0 211.53 89.76">
  <defs>
    <style>
      .cls-1 {
        fill: #a6785d;
      }
    </style>
  </defs>
  <g id="Layer_1-2" data-name="Layer 1">
    <g>
      <path class="cls-1" d="M14.14,84.96c-.35.65-.79,1.22-1.3,1.7-.52.48-1.12.85-1.8,1.13-.69.27-1.45.41-2.28.41-1.34,0-2.45-.25-3.34-.76-.89-.51-1.59-1.17-2.12-1.99s-.9-1.76-1.13-2.81c-.23-1.05-.34-2.12-.34-3.2,0-1.16.13-2.26.39-3.3.26-1.04.67-1.96,1.22-2.75.55-.8,1.25-1.43,2.1-1.9.85-.47,1.86-.71,3.04-.71,1.66,0,3.01.35,4.04,1.06,1.03.71,1.74,1.89,2.12,3.55h1.9c-.16-1.01-.46-1.9-.88-2.67s-.97-1.41-1.63-1.94c-.66-.52-1.42-.92-2.28-1.18s-1.79-.39-2.78-.39c-1.3,0-2.5.19-3.61.56-1.1.37-2.06.97-2.88,1.79-.81.82-1.45,1.89-1.91,3.19-.46,1.3-.69,2.88-.69,4.75,0,1.39.15,2.71.46,3.95.31,1.24.8,2.33,1.48,3.27.68.94,1.55,1.69,2.62,2.24s2.35.83,3.85.83c1.3,0,2.44-.19,3.4-.56.97-.37,1.79-.87,2.47-1.51s1.22-1.37,1.64-2.21c.42-.84.73-1.73.95-2.67h-1.93c-.18.78-.45,1.49-.8,2.14Z"/>
      <path class="cls-1" d="M35.6,72.2c-.77-.93-1.73-1.66-2.88-2.2-1.15-.53-2.48-.8-4-.8s-2.76.27-3.88.81c-1.12.54-2.06,1.28-2.82,2.21-.76.93-1.33,2.02-1.72,3.27-.39,1.25-.58,2.59-.58,4.01s.19,2.74.57,3.97c.38,1.24.95,2.32,1.71,3.25.76.93,1.71,1.67,2.85,2.21s2.46.81,3.96.81,2.82-.27,3.96-.81,2.09-1.28,2.85-2.21c.76-.93,1.33-2.02,1.72-3.25.39-1.24.58-2.56.58-3.97s-.19-2.77-.58-4.03c-.39-1.26-.97-2.35-1.74-3.28ZM35.65,82.79c-.28,1.05-.71,1.97-1.3,2.77-.59.8-1.34,1.43-2.25,1.91-.91.48-2,.72-3.27.72s-2.38-.23-3.3-.71c-.91-.47-1.66-1.1-2.25-1.9-.59-.8-1.02-1.72-1.3-2.77-.28-1.05-.42-2.15-.42-3.31s.14-2.23.42-3.28c.28-1.05.71-1.98,1.3-2.78.59-.8,1.34-1.45,2.25-1.94s1.99-.73,3.24-.73c1.12,0,2.13.2,3.04.6.9.4,1.67.98,2.31,1.74.63.76,1.12,1.68,1.45,2.75.33,1.08.5,2.29.5,3.65,0,1.14-.14,2.23-.42,3.28Z"/>
      <polygon class="cls-1" points="50.77 86.94 50.72 86.94 44.32 69.72 41.5 69.72 41.5 89.25 43.34 89.25 43.34 71.84 43.4 71.84 49.82 89.25 51.56 89.25 57.96 71.84 58.02 71.84 58.02 89.25 59.86 89.25 59.86 69.72 57.07 69.72 50.77 86.94"/>
      <polygon class="cls-1" points="73.37 86.94 73.31 86.94 66.91 69.72 64.09 69.72 64.09 89.25 65.94 89.25 65.94 71.84 65.99 71.84 72.42 89.25 74.15 89.25 80.55 71.84 80.61 71.84 80.61 89.25 82.45 89.25 82.45 69.72 79.66 69.72 73.37 86.94"/>
      <path class="cls-1" d="M101.89,72.2c-.77-.93-1.73-1.66-2.88-2.2-1.15-.53-2.48-.8-4-.8s-2.76.27-3.88.81c-1.12.54-2.06,1.28-2.82,2.21-.76.93-1.33,2.02-1.72,3.27-.39,1.25-.58,2.59-.58,4.01s.19,2.74.57,3.97c.38,1.24.95,2.32,1.71,3.25.76.93,1.71,1.67,2.85,2.21s2.46.81,3.96.81,2.82-.27,3.96-.81,2.09-1.28,2.85-2.21c.76-.93,1.33-2.02,1.72-3.25.39-1.24.58-2.56.58-3.97s-.19-2.77-.58-4.03c-.39-1.26-.97-2.35-1.74-3.28ZM101.94,82.79c-.28,1.05-.71,1.97-1.3,2.77-.59.8-1.34,1.43-2.25,1.91-.91.48-2,.72-3.27.72s-2.38-.23-3.3-.71c-.91-.47-1.66-1.1-2.25-1.9-.59-.8-1.02-1.72-1.3-2.77-.28-1.05-.42-2.15-.42-3.31s.14-2.23.42-3.28c.28-1.05.71-1.98,1.3-2.78.59-.8,1.34-1.45,2.25-1.94s1.99-.73,3.24-.73c1.12,0,2.13.2,3.04.6.9.4,1.67.98,2.31,1.74.63.76,1.12,1.68,1.45,2.75.33,1.08.5,2.29.5,3.65,0,1.14-.14,2.23-.42,3.28Z"/>
      <polygon class="cls-1" points="121.24 86.78 121.18 86.78 109.9 69.72 107.81 69.72 107.81 89.25 109.66 89.25 109.66 72.22 109.71 72.22 120.94 89.25 123.08 89.25 123.08 69.72 121.24 69.72 121.24 86.78"/>
      <path class="cls-1" d="M138.9,80.19c-.52-.4-1.13-.71-1.8-.95-.68-.23-1.38-.44-2.1-.61-.72-.17-1.43-.33-2.13-.49-.7-.15-1.33-.35-1.91-.6-.58-.24-1.07-.56-1.46-.94-.4-.38-.65-.89-.76-1.52-.09-.51-.06-1.01.08-1.52.14-.51.41-.97.79-1.38.38-.42.89-.75,1.53-1.02.64-.26,1.43-.39,2.37-.39.61,0,1.21.08,1.79.24.58.16,1.09.42,1.55.76.45.34.81.79,1.07,1.33.26.54.39,1.18.39,1.93h1.76c0-.8-.14-1.55-.41-2.25-.27-.71-.68-1.32-1.22-1.86s-1.23-.95-2.05-1.26-1.79-.46-2.89-.46-2.04.15-2.88.43c-.83.29-1.52.68-2.07,1.17-.55.49-.97,1.05-1.25,1.68-.28.63-.42,1.28-.42,1.95,0,.96.17,1.75.52,2.37.34.62.79,1.14,1.34,1.53.55.4,1.18.71,1.9.95.71.24,1.45.44,2.2.61.75.17,1.48.35,2.2.53.71.18,1.35.42,1.9.72.55.3,1,.68,1.34,1.15.34.47.52,1.08.52,1.84,0,.54-.09,1.06-.28,1.55s-.48.92-.88,1.29c-.4.37-.91.66-1.55.88-.63.22-1.38.33-2.25.33-.74,0-1.44-.09-2.09-.26s-1.23-.45-1.72-.83c-.5-.38-.9-.87-1.22-1.48-.32-.61-.51-1.34-.58-2.21h-1.79c0,1.07.18,1.99.53,2.78s.84,1.45,1.48,1.98c.63.53,1.38.93,2.25,1.19.87.26,1.81.39,2.82.39,2.26,0,4.01-.5,5.26-1.49s1.87-2.4,1.87-4.2c0-.94-.16-1.72-.48-2.35-.32-.62-.74-1.13-1.26-1.53Z"/>
      <path class="cls-1" d="M156.16,71.35c-.48-.51-1.13-.9-1.95-1.19-.82-.29-1.87-.43-3.13-.43h-7.13v19.53h1.84v-8.62h4.18c.9,0,1.8-.08,2.7-.24s1.7-.45,2.4-.85,1.28-.96,1.72-1.67c.44-.71.66-1.6.66-2.69,0-.72-.09-1.41-.28-2.08-.19-.66-.52-1.24-1-1.75ZM155.21,77.06c-.26.52-.63.92-1.11,1.22s-1.06.5-1.75.61-1.46.16-2.33.16h-4.23v-7.76h4.77c1.75,0,3.03.32,3.84.95s1.21,1.56,1.21,2.79c0,.83-.13,1.51-.39,2.02Z"/>
      <path class="cls-1" d="M166.48,69.72l-7.68,19.53h1.9l2.31-6.13h8.9l2.25,6.13h1.9l-7.49-19.53h-2.09ZM163.63,81.55l3.82-10.25,3.82,10.25h-7.65Z"/>
      <path class="cls-1" d="M191.93,84.96c-.35.65-.79,1.22-1.3,1.7-.52.48-1.12.85-1.8,1.13-.69.27-1.45.41-2.28.41-1.34,0-2.45-.25-3.34-.76-.89-.51-1.59-1.17-2.12-1.99s-.9-1.76-1.13-2.81c-.23-1.05-.34-2.12-.34-3.2,0-1.16.13-2.26.39-3.3.26-1.04.67-1.96,1.22-2.75.55-.8,1.25-1.43,2.1-1.9.85-.47,1.86-.71,3.04-.71,1.66,0,3.01.35,4.04,1.06,1.03.71,1.74,1.89,2.12,3.55h1.9c-.16-1.01-.46-1.9-.88-2.67s-.97-1.41-1.63-1.94c-.66-.52-1.42-.92-2.28-1.18s-1.79-.39-2.78-.39c-1.3,0-2.5.19-3.61.56-1.1.37-2.06.97-2.88,1.79-.81.82-1.45,1.89-1.91,3.19-.46,1.3-.69,2.88-.69,4.75,0,1.39.15,2.71.46,3.95.31,1.24.8,2.33,1.48,3.27.68.94,1.55,1.69,2.62,2.24s2.35.83,3.85.83c1.3,0,2.44-.19,3.4-.56.97-.37,1.79-.87,2.47-1.51s1.22-1.37,1.64-2.21c.42-.84.73-1.73.95-2.67h-1.93c-.18.78-.45,1.49-.8,2.14Z"/>
      <polygon class="cls-1" points="200.11 87.68 200.11 79.92 210.17 79.92 210.17 78.35 200.11 78.35 200.11 71.29 211.26 71.29 211.26 69.72 198.27 69.72 198.27 89.25 211.53 89.25 211.53 87.68 200.11 87.68"/>
      <path class="cls-1" d="M100.89,58.06c3.4,3.15,8.11,4.73,14.13,4.73,5.16,0,9.69-1.18,13.59-3.55,3.9-2.36,5.85-6.29,5.85-11.79,0-4.41-1.53-7.78-4.58-10.1-1.77-1.33-4.28-2.38-7.53-3.14l-6.74-1.59c-4.54-1.08-7.45-1.98-8.74-2.7-1.96-1.13-2.95-2.9-2.95-5.34,0-2.21.83-4.14,2.49-5.81,1.66-1.67,4.39-2.5,8.19-2.5,4.71,0,8.04,1.3,10.01,3.88,1.06,1.42,1.75,3.46,2.07,6.11h6.32c0-5.52-1.77-9.53-5.31-12.04-2.67-1.89-5.77-3.07-9.3-3.54-.96-2.04-2.35-3.96-4.19-5.74-3.43-3.31-8.25-4.97-14.45-4.97-7.28,0-12.99,2.55-17.13,7.64-3.83,4.69-5.74,10.69-5.74,18.02,0,9.64,2.55,16.78,7.65,21.4,3.43,3.09,7.58,4.81,12.44,5.16.83,2.25,2.13,4.21,3.91,5.85ZM114.65,45.9c1.61-1.75,2.88-3.71,3.84-5.88,3.11.79,5.44,1.7,6.97,2.73,1.64,1.15,2.45,3.07,2.45,5.78,0,3.6-1.93,6.1-5.79,7.5-2,.72-4.21,1.08-6.64,1.08-5.42,0-9.21-1.64-11.36-4.93-.07-.12-.14-.24-.21-.36,4.31-.84,7.89-2.8,10.74-5.92ZM87.77,40.95c-2.67-3.62-4-8.33-4-14.15,0-7.1,1.48-12.37,4.43-15.8,2.95-3.44,6.83-5.16,11.63-5.16,3.94,0,6.99.93,9.17,2.8.72.62,1.36,1.32,1.92,2.09-3.67.53-6.63,1.87-8.88,4.02-3,2.86-4.5,6.52-4.5,10.98,0,4.12,1.53,7.22,4.58,9.29,1.77,1.19,4.78,2.29,9.03,3.28l.87.2c-.37.79-.76,1.51-1.2,2.16-2.54,3.81-6.25,5.71-11.12,5.71-5.29,0-9.26-1.81-11.93-5.43Z"/>
    </g>
  </g>
</svg>